<svg xmlns="http://www.w3.org/2000/svg" viewBox="0 0 10.97 30.31"><defs><style>.cls-1{fill:#eaaff9;}</style></defs><g id="Capa_2" data-name="Capa 2"><g id="Capa_1-2" data-name="Capa 1"><path class="cls-1" d="M5.92,7.32A3.55,3.55,0,0,1,8.55,9.51L11,1.29,4,0,3,8.12A3.52,3.52,0,0,1,5.92,7.32Z"/><path class="cls-1" d="M9.43,25a1.28,1.28,0,0,1-.89-.25,1.1,1.1,0,0,1-.27-.83v-4.3h2.61V14.34H8.27v-.09A4.42,4.42,0,0,1,2,14.34H0v5.24H2v4.19q0,6.54,6.57,6.54h2.38V25Z"/><circle class="cls-1" cx="5.28" cy="11.79" r="2.52"/></g></g></svg>